<svg width="16" height="12" viewBox="0 0 16 12" fill="none" xmlns="http://www.w3.org/2000/svg">
<path d="M9.66667 0.451492C9.45344 0.451492 9.23997 0.534344 9.07747 0.697261L9.00586 0.768875C8.68003 1.09471 8.68003 1.62226 9.00586 1.94726L12.2253 5.16666H1.33333C0.873333 5.16666 0.5 5.53999 0.5 5.99999C0.5 6.45999 0.873333 6.83333 1.33333 6.83333H12.2253L9.00586 10.0527C8.68003 10.3786 8.68003 10.9061 9.00586 11.2311L9.07747 11.3027C9.40331 11.6286 9.93086 11.6286 10.2559 11.3027L14.9694 6.58919C15.2952 6.26335 15.2952 5.7358 14.9694 5.4108L10.2559 0.697261C10.0929 0.534344 9.8799 0.451492 9.66667 0.451492Z" fill="black"/>
</svg>
