<svg width="16" height="17" viewBox="0 0 16 17" fill="none" xmlns="http://www.w3.org/2000/svg">
<path d="M7.62402 0.840812C7.52823 0.846385 7.43107 0.869341 7.33919 0.910799C6.50086 1.2883 5.11952 2.16262 4.75618 3.92512C4.35035 5.89512 5.63704 7.93546 7.63704 8.14713C9.64121 8.35879 11.3333 6.79416 11.3333 4.83333C11.3333 2.63083 9.51417 1.91829 8.83333 1.91829L8.36458 1.21353C8.19708 0.961659 7.91141 0.824093 7.62402 0.840812ZM8 10.6667C5.49667 10.6667 0.5 11.9233 0.5 14.4167V15.6667C0.5 16.1267 0.873333 16.5 1.33333 16.5H14.6667C15.1267 16.5 15.5 16.1267 15.5 15.6667V14.4167C15.5 11.9233 10.5033 10.6667 8 10.6667Z" fill="black"/>
</svg>
