<svg width="16" height="12" viewBox="0 0 16 12" fill="none" xmlns="http://www.w3.org/2000/svg">
<path d="M6.33333 11.5485C6.54656 11.5485 6.76003 11.4656 6.92253 11.3027L6.99414 11.2311C7.31997 10.9053 7.31997 10.3777 6.99414 10.0527L3.77474 6.83333L14.6667 6.83332C15.1267 6.83332 15.5 6.45999 15.5 5.99999C15.5 5.53999 15.1267 5.16666 14.6667 5.16666L3.77474 5.16666L6.99414 1.94726C7.31997 1.62143 7.31997 1.09387 6.99414 0.768873L6.92252 0.697259C6.59669 0.371425 6.06914 0.371425 5.74414 0.697259L1.0306 5.4108C0.704765 5.73663 0.704765 6.26419 1.0306 6.58919L5.74414 11.3027C5.90706 11.4656 6.1201 11.5485 6.33333 11.5485Z" fill="black"/>
</svg>
